<svg width="895" height="862" viewBox="0 0 895 862" fill="none" xmlns="http://www.w3.org/2000/svg">
<polygon id="escaleras1" fill="#cecece" points=" 193.5,757.8469848632812 87,757.8469848632812 87,716.3469848632812 146.5,716.3469848632812 146.5,682.3469848632812 193.5,682.3469848632812 193.5,757.8469848632812"></polygon>
<polygon id="56" fill="#cecece" points=" 193.5,757.8469848632812 193.5,682.3469848632812 193.5,617.8469848632812 230.5,617.8469848632812 271.5,617.8469848632812 429.5,617.8469848632812 590,617.8469848632812 590,859.8469848632812 193.5,859.8469848632812 193.5,757.8469848632812"></polygon>
<polygon id="54" fill="#cecece" points=" 429.5,617.8469848632812 271.5,617.8469848632812 271.5,558.8469848632812 271.5,512.8469848632812 429.5,512.8469848632812 429.5,617.8469848632812"></polygon>
<polygon id="55" fill="#cecece" points=" 590,617.8469848632812 429.5,617.8469848632812 429.5,512.8469848632812 466,512.8469848632812 590,512.8469848632812 590,617.8469848632812"></polygon>
<polygon id="49" fill="#cecece" points=" 2,614.3469848632812 2,512.8469848632812 140.5,512.8469848632812 140.5,614.3469848632812 2,614.3469848632812"></polygon>
<polygon id="52" fill="#cecece" points=" 429.5,512.8469848632812 271.5,512.8469848632812 271.5,414.34698486328125 429.5,414.34698486328125 429.5,512.8469848632812"></polygon>
<polygon id="53" fill="#cecece" points=" 590,512.8469848632812 466,512.8469848632812 466,414.34698486328125 590,414.34698486328125 590,512.8469848632812"></polygon>
<polygon id="51" fill="#cecece" points=" 590,414.34698486328125 466,414.34698486328125 466,294.34698486328125 540,294.34698486328125 590,294.34698486328125 590,347.34698486328125 590,414.34698486328125"></polygon>
<polygon id="50" fill="#cecece" points=" 429.5,414.34698486328125 271.5,414.34698486328125 271.5,327.84698486328125 302.5,327.84698486328125 302.5,294.34698486328125 398,294.34698486328125 429.5,294.34698486328125 429.5,414.34698486328125"></polygon>
<polygon id="48" fill="#cecece" points=" 140.5,512.8469848632812 2,512.8469848632812 2,403.84698486328125 181.5,403.84698486328125 181.5,512.8469848632812 140.5,512.8469848632812"></polygon>
<polygon id="47" fill="#cecece" points=" 181.5,403.84698486328125 2,403.84698486328125 2,294.34698486328125 118.5,294.34698486328125 181.5,294.34698486328125 181.5,403.84698486328125"></polygon>
<polygon id="escaleras2" fill="#cecece" points=" 398,294.34698486328125 302.5,294.34698486328125 297.5,294.34698486328125 297.5,265.34698486328125 398,265.34698486328125 398,294.34698486328125"></polygon>
<polygon id="ascensor1" fill="#cecece" points=" 302.5,327.84698486328125 271.5,327.84698486328125 271.5,294.34698486328125 297.5,294.34698486328125 302.5,294.34698486328125 302.5,327.84698486328125"></polygon>
<polygon id="escaleras3" fill="#cecece" points=" 590,294.34698486328125 540,294.34698486328125 540,265.34698486328125 641.5,265.34698486328125 641.5,294.34698486328125 590,294.34698486328125"></polygon>
<polygon id="terraza" fill="#cecece" points=" 590,347.34698486328125 590,294.34698486328125 641.5,294.34698486328125 773.5,294.34698486328125 773.5,287.84698486328125 892.5,287.84698486328125 892.5,347.34698486328125 821.5,347.34698486328125 719,347.34698486328125 590,347.34698486328125"></polygon>
<polygon id="escaleras4" fill="#cecece" points=" 719,347.34698486328125 821.5,347.34698486328125 821.5,377.84698486328125 719,377.84698486328125 719,347.34698486328125"></polygon>
<polygon id="46" fill="#cecece" points=" 892.5,287.84698486328125 773.5,287.84698486328125 773.5,212.8470001220703 892.5,212.8470001220703 892.5,287.84698486328125"></polygon>
<polygon id="45" fill="#cecece" points=" 892.5,212.8470001220703 773.5,212.8470001220703 773.5,67.3467025756836 773.5,3.346679925918579 892.5,67.3467025756836 892.5,212.8470001220703"></polygon>
<polygon id="44" fill="#cecece" points=" 773.5,67.3467025756836 773.5,212.8470001220703 636.5,212.8470001220703 636.5,67.3467025756836 773.5,67.3467025756836"></polygon>
<polygon id="43" fill="#cecece" points=" 636.5,67.3467025756836 636.5,212.8470001220703 497.5,212.8470001220703 497.5,67.3467025756836 636.5,67.3467025756836"></polygon>
<polygon id="42" fill="#cecece" points=" 497.5,67.3467025756836 497.5,212.8470001220703 412.5,212.8470001220703 412.5,67.3467025756836 497.5,67.3467025756836"></polygon>
<polygon id="41" fill="#cecece" points=" 412.5,67.3467025756836 412.5,212.8470001220703 327,212.8470001220703 327,134.8470001220703 327,67.3467025756836 412.5,67.3467025756836"></polygon>
<polygon id="40" fill="#cecece" points=" 327,134.8470001220703 327,212.8470001220703 263,212.8470001220703 263,134.8470001220703 327,134.8470001220703"></polygon>
<polygon id="39" fill="#cecece" points=" 327,67.3467025756836 327,134.8470001220703 263,134.8470001220703 241,134.8470001220703 241,67.3467025756836 327,67.3467025756836"></polygon>
<polygon id="37" fill="#cecece" points=" 241,67.3467025756836 241,134.8470001220703 222.5,134.8470001220703 222.5,162.8470001220703 150,162.8470001220703 150,67.3467025756836 241,67.3467025756836"></polygon>
<polygon id="38" fill="#cecece" points=" 150,162.8470001220703 222.5,162.8470001220703 222.5,212.8470001220703 150,212.8470001220703 150,162.8470001220703"></polygon>
<polygon id="36" fill="#cecece" points=" 118.5,229.3470001220703 2,229.3470001220703 2,67.3467025756836 150,67.3467025756836 150,162.8470001220703 150,212.8470001220703 118.5,212.8470001220703 118.5,229.3470001220703"></polygon>
<polygon id="sn5" fill="#cecece" points=" 118.5,294.34698486328125 2,294.34698486328125 2,229.3470001220703 118.5,229.3470001220703 118.5,294.34698486328125"></polygon>
<polygon id="sn6" fill="#cecece" points=" 230.5,617.8469848632812 193.5,617.8469848632812 193.5,558.8469848632812 230.5,558.8469848632812 230.5,617.8469848632812"></polygon>
<polygon id="sn7" fill="#cecece" points=" 271.5,617.8469848632812 230.5,617.8469848632812 230.5,558.8469848632812 271.5,558.8469848632812 271.5,617.8469848632812"></polygon>
</svg>